#!OML:ASF E:\Steps\Project 1\Capture day 1\Session 2\Subject.ASF
:FULLY-SPECIFIED
:DEGREES
757
root 9.7222 20.5383 -11.9673 -159.173 0.627407 177.886
lowerback -15.9752 -0.309238 -5.14219
upperback 3.16815 0.699207 -0.268614
thorax 12.4942 -0.0344901 2.80736
lowerneck 3.40835 -1.06945 2.02229
upperneck 11.4079 -2.50214 2.62425
head 3.07238 -1.41125 0.442094
rclavicle 2.34814e-015 -9.19379e-015
rhumerus -34.7689 -10.793 -79.7969
rradius 45.6346
rwrist -7.1347
rhand -5.5335 -53.8594
rfingers 7.12502
rthumb 20.2808 -82.8206
lclavicle 2.34814e-015 -9.19379e-015
lhumerus -33.9184 4.77935 77.3529
lradius 24.2914
lwrist -4.00987
lhand -19.9095 -13.1923
lfingers 7.12502
lthumb 6.42715 16.6902
rfemur -26.0456 5.03583 22.7712
rtibia 16.9911
rfoot -19.5863 -8.5532
rtoes -36.0565
lfemur -78.0756 -1.86955 -20.6476
ltibia 75.984
lfoot -8.84907 4.52922
ltoes -22.4064
758
root 9.72575 20.5405 -12.0377 -159.273 0.658672 177.913
lowerback -16.0149 -0.280179 -5.07998
upperback 3.22704 0.730208 -0.275144
thorax 12.5831 -0.0187612 2.77366
lowerneck 3.31311 -1.18715 2.14034
upperneck 11.8462 -2.72548 2.59424
head 3.24101 -1.52768 0.405089
rclavicle -3.24267e-015 1.32937e-014
rhumerus -34.4963 -10.6214 -79.9587
rradius 45.7031
rwrist -7.11288
rhand -5.50947 -54.0774
rfingers 7.12502
rthumb 20.3038 -83.0361
lclavicle -3.24267e-015 1.32937e-014
lhumerus -34.0538 4.99762 77.2672
lradius 24.2692
lwrist -3.9876
lhand -19.9709 -13.1517
lfingers 7.12502
lthumb 6.36791 16.7325
rfemur -25.5819 4.94526 22.8646
rtibia 16.8725
rfoot -19.7684 -8.53585
rtoes -36.0878
lfemur -78.089 -1.93855 -20.369
ltibia 74.0534
lfoot -8.01355 4.1292
ltoes -23.7959
759
root 9.73303 20.5417 -12.1017 -159.442 0.802873 177.798
lowerback -15.9151 -0.222576 -5.23629
upperback 3.25156 0.843214 -0.331628
thorax 12.5422 0.0267585 2.82825
lowerneck 3.3287 -1.14063 2.42395
upperneck 12.1974 -2.6816 2.28582
head 3.35162 -1.51206 0.255252
rclavicle 1.49089e-016 1.24489e-014
rhumerus -34.4534 -10.4724 -80.0581
rradius 45.7475
rwrist -7.23532
rhand -5.86939 -53.627
rfingers 7.12502
rthumb 19.9579 -82.6222
lclavicle 1.49089e-016 1.24489e-014
lhumerus -34.1394 5.16676 77.1587
lradius 24.057
lwrist -3.94243
lhand -19.8119 -12.8041
lfingers 7.12502
lthumb 6.5214 17.0755
rfemur -25.1032 5.04737 22.7428
rtibia 16.7582
rfoot -19.8929 -8.52717
rtoes -35.5819
lfemur -77.9358 -1.91914 -20.2826
ltibia 72.1811
lfoot -7.14932 3.71379
ltoes -23.8578
760
root 9.74092 20.5392 -12.1723 -159.592 0.92612 177.783
lowerback -15.9076 -0.134114 -5.30276
upperback 3.20253 0.978589 -0.36856
thorax 12.4693 0.0903596 2.86009
lowerneck 3.44254 -1.10367 2.41851
upperneck 12.735 -2.70468 2.16593
head 3.5177 -1.54582 0.21378
rclavicle 3.23025e-016 1.86361e-014
rhumerus -34.7044 -10.2832 -80.1171
rradius 45.9608
rwrist -7.4227
rhand -5.92082 -53.4216
rfingers 7.12502
rthumb 19.9085 -82.4218
lclavicle 3.23025e-016 1.86361e-014
lhumerus -34.3103 5.09149 77.0718
lradius 23.6876
lwrist -3.87622
lhand -19.9005 -13.0906
lfingers 7.12502
lthumb 6.43589 16.7916
rfemur -24.5909 5.18236 22.7539
rtibia 16.6269
rfoot -20.0708 -8.53683
rtoes -35.3381
lfemur -77.758 -1.8598 -20.0982
ltibia 70.2682
lfoot -6.37128 3.2632
ltoes -23.9255
761
root 9.74426 20.5378 -12.2485 -159.698 1.01053 177.858
lowerback -16.0296 -0.0661223 -5.24126
upperback 3.47356 1.07504 -0.369509
thorax 12.8469 0.123779 2.85311
lowerneck 3.13506 -1.07807 2.2658
upperneck 11.802 -2.51484 2.23459
head 3.24938 -1.41633 0.269899
rclavicle -2.21148e-015 -1.31198e-014
rhumerus -34.1122 -10.2602 -80.3134
rradius 46.1346
rwrist -7.57428
rhand -5.80043 -53.6104
rfingers 7.12502
rthumb 20.0242 -82.5986
lclavicle -2.21148e-015 -1.31198e-014
lhumerus -33.799 5.12849 77.087
lradius 23.2708
lwrist -3.81638
lhand -20.1574 -13.7865
lfingers 7.12502
lthumb 6.18784 16.1032
rfemur -24.0571 5.02754 22.9097
rtibia 16.4142
rfoot -20.2509 -8.2998
rtoes -35.344
lfemur -77.6022 -1.81738 -19.8363
ltibia 68.4629
lfoot -5.84915 2.91765
ltoes -23.9418
762
root 9.74496 20.5372 -12.3185 -159.781 1.18447 177.878
lowerback -16.041 0.0235295 -5.19236
upperback 3.43225 1.19038 -0.416317
thorax 12.7971 0.186097 2.80382
lowerneck 3.3047 -0.995993 2.14974
upperneck 11.7425 -2.41464 2.36992
head 3.20087 -1.37183 0.337175
rclavicle 5.39203e-015 2.56929e-014
rhumerus -34.1961 -10.1305 -80.3857
rradius 46.3719
rwrist -7.59082
rhand -5.55629 -53.7842
rfingers 7.12502
rthumb 20.2588 -82.7476
lclavicle 5.39203e-015 2.56929e-014
lhumerus -34.0897 5.2043 76.9641
lradius 23.1557
lwrist -4.00732
lhand -20.1571 -13.8658
lfingers 7.12502
lthumb 6.18811 16.0238
rfemur -23.538 4.68306 22.9992
rtibia 16.0741
rfoot -20.296 -7.89526
rtoes -35.7286
lfemur -77.3983 -1.7158 -19.6601
ltibia 66.8033
lfoot -5.53884 2.60381
ltoes -23.5707
763
root 9.74761 20.5321 -12.3879 -159.873 1.44023 177.816
lowerback -16.1055 0.0847147 -5.28543
upperback 3.42373 1.30656 -0.485708
thorax 12.8163 0.23701 2.81146
lowerneck 3.38257 -0.792856 2.27027
upperneck 11.7794 -2.129 2.22078
head 3.19523 -1.23203 0.273783
rclavicle -6.59717e-015 -1.96797e-014
rhumerus -34.1271 -9.89879 -80.5433
rradius 46.4131
rwrist -7.58892
rhand -5.62249 -53.7972
rfingers 7.12502
rthumb 20.1952 -82.7674
lclavicle -6.59717e-015 -1.96797e-014
lhumerus -34.3856 5.47156 76.7752
lradius 23.1928
lwrist -4.21423
lhand -19.933 -13.7059
lfingers 7.12502
lthumb 6.40448 16.1773
rfemur -23.1093 4.57449 22.9452
rtibia 15.9028
rfoot -20.441 -7.68092
rtoes -36.2702
lfemur -77.1271 -1.57035 -19.5608
ltibia 65.1356
lfoot -5.30608 2.3627
ltoes -22.8251
764
root 9.74907 20.5237 -12.465 -160.027 1.62172 177.67
lowerback -16.2057 0.0802978 -5.4927
upperback 3.49926 1.36229 -0.528152
thorax 12.9576 0.244371 2.89923
lowerneck 3.40034 -0.967882 2.03368
upperneck 12.027 -2.46188 2.66579
head 3.2891 -1.40553 0.451184
rclavicle 1.08089e-014 -1.82882e-014
rhumerus -33.8499 -9.74117 -80.6963
rradius 46.2569
rwrist -7.60447
rhand -5.72886 -53.8405
rfingers 7.12502
rthumb 20.093 -82.8215
lclavicle 1.08089e-014 -1.82882e-014
lhumerus -34.288 5.65508 76.6955
lradius 22.9565
lwrist -4.10279
lhand -19.8765 -13.7196
lfingers 7.12502
lthumb 6.45902 16.1619
rfemur -22.6195 4.59025 22.7848
rtibia 15.91
rfoot -20.528 -7.64787
rtoes -37.2296
lfemur -76.7078 -1.59446 -19.4903
ltibia 63.3821
lfoot -5.19432 2.16663
ltoes -22.8039
